<svg width="156" height="27" viewBox="0 0 156 27" fill="none" xmlns="http://www.w3.org/2000/svg">
<g clip-path="url(#clip0_273_450)">
<g clip-path="url(#clip1_273_450)">
<path d="M52.74 11.9099C52.32 11.1899 51.66 10.6399 50.76 10.2599C51.58 9.73986 52.16 9.14986 52.5 8.48986C52.84 7.80986 53.01 6.89986 53.01 5.75986C53.01 3.85986 52.48 2.48986 51.42 1.64986C50.36 0.789863 48.77 0.359863 46.65 0.359863H38.64V20.7599H46.77C48.87 20.7599 50.5 20.2799 51.66 19.3199C52.82 18.3599 53.4 16.8899 53.4 14.9099C53.4 13.6299 53.18 12.6299 52.74 11.9099ZM42.78 3.89986H46.44C48.02 3.89986 48.81 4.70986 48.81 6.32986C48.81 7.94986 48.03 8.75986 46.47 8.75986H42.78V3.89986ZM48.54 16.6799C48.12 17.0399 47.46 17.2199 46.56 17.2199H42.78V12.2399H46.56C48.32 12.2399 49.2 13.0599 49.2 14.6999C49.2 15.6599 48.98 16.3199 48.54 16.6799Z" fill="#94A3B8"/>
<path d="M68.9801 12.1799C68.9801 7.6599 66.8001 5.3999 62.4401 5.3999C58.0801 5.3999 55.8101 8.0899 55.8101 13.4699C55.8101 16.1699 56.3201 18.1199 57.3401 19.3199C58.3601 20.5199 60.0001 21.1199 62.2601 21.1199C64.1201 21.1199 66.2001 20.8399 68.5001 20.2799L68.4401 17.3099L67.6001 17.3999C66.1401 17.5199 64.4801 17.5799 62.6201 17.5799C61.7401 17.5799 61.0601 17.3799 60.5801 16.9799C60.1201 16.5599 59.8801 15.8899 59.8601 14.9699H68.6801L68.9801 12.1799ZM59.8301 11.9099C59.8501 10.7499 60.0501 9.9299 60.4301 9.4499C60.8301 8.9499 61.5001 8.6999 62.4401 8.6999C63.3801 8.6999 64.0701 8.9399 64.4501 9.4199C64.8301 9.8799 65.0201 10.7099 65.0201 11.9099H59.8301Z" fill="#94A3B8"/>
<path d="M70.23 5.75977H74.19L76.92 17.3398H77.61L80.34 5.75977H84.3L79.02 27.0598H75.09L76.74 20.7598H73.92L70.23 5.75977Z" fill="#94A3B8"/>
<path d="M93.24 3.6C91.06 3.6 89.97 4.32 89.97 5.76C89.97 6.4 90.24 6.89 90.78 7.23C91.32 7.57 92.58 8.06 94.56 8.7C96.56 9.34 97.96 10.07 98.76 10.89C99.56 11.69 99.96 12.93 99.96 14.61C99.96 16.75 99.31 18.37 98.01 19.47C96.71 20.57 95.01 21.12 92.91 21.12C91.35 21.12 89.44 20.88 87.18 20.4L86.1 20.19L86.52 16.98C89.2 17.34 91.25 17.52 92.67 17.52C94.79 17.52 95.85 16.64 95.85 14.88C95.85 14.24 95.6 13.74 95.1 13.38C94.62 13.02 93.65 12.63 92.19 12.21C89.87 11.55 88.23 10.77 87.27 9.87C86.33 8.95 85.86 7.68 85.86 6.06C85.86 4.02 86.48 2.5 87.72 1.5C88.96 0.5 90.66 0 92.82 0C94.3 0 96.18 0.2 98.46 0.6L99.54 0.81L99.21 4.08C96.39 3.76 94.4 3.6 93.24 3.6Z" fill="#94A3B8"/>
<path d="M108.54 5.3999C109.58 5.3999 110.91 5.5599 112.53 5.8799L113.34 6.0599L113.22 9.2399C111.64 9.0799 110.47 8.9999 109.71 8.9999C108.33 8.9999 107.41 9.2999 106.95 9.8999C106.51 10.4799 106.29 11.5899 106.29 13.2299C106.29 14.8699 106.51 15.9999 106.95 16.6199C107.41 17.2199 108.34 17.5199 109.74 17.5199L113.22 17.2799L113.34 20.4899C111.2 20.9099 109.57 21.1199 108.45 21.1199C106.23 21.1199 104.63 20.4999 103.65 19.2599C102.69 17.9999 102.21 15.9899 102.21 13.2299C102.21 10.4699 102.71 8.4799 103.71 7.2599C104.71 6.0199 106.32 5.3999 108.54 5.3999Z" fill="#94A3B8"/>
<path d="M127.64 7.4699C126.58 6.0899 124.81 5.3999 122.33 5.3999C119.85 5.3999 118.08 6.0899 117.02 7.4699C115.96 8.8299 115.43 10.7499 115.43 13.2299C115.43 18.4899 117.73 21.1199 122.33 21.1199C126.93 21.1199 129.23 18.4899 129.23 13.2299C129.23 10.7499 128.7 8.8299 127.64 7.4699ZM124.52 16.6199C124.12 17.3399 123.39 17.6999 122.33 17.6999C121.27 17.6999 120.53 17.3399 120.11 16.6199C119.71 15.8999 119.51 14.7699 119.51 13.2299C119.51 11.6899 119.71 10.5699 120.11 9.8699C120.53 9.1699 121.27 8.8199 122.33 8.8199C123.39 8.8199 124.12 9.1699 124.52 9.8699C124.94 10.5699 125.15 11.6899 125.15 13.2299C125.15 14.7699 124.94 15.8999 124.52 16.6199Z" fill="#94A3B8"/>
<path d="M132.17 20.7599V5.7599H136.16V7.3499C137.84 6.3499 139.44 5.6999 140.96 5.3999V9.4499C139.34 9.7899 137.95 10.1399 136.79 10.4999L136.19 10.7099V20.7599H132.17Z" fill="#94A3B8"/>
<path d="M155.76 12.1799C155.76 7.6599 153.58 5.3999 149.22 5.3999C144.86 5.3999 142.59 8.0899 142.59 13.4699C142.59 16.1699 143.1 18.1199 144.12 19.3199C145.14 20.5199 146.78 21.1199 149.04 21.1199C150.9 21.1199 152.98 20.8399 155.28 20.2799L155.22 17.3099L154.38 17.3999C152.92 17.5199 151.26 17.5799 149.4 17.5799C148.52 17.5799 147.84 17.3799 147.36 16.9799C146.9 16.5599 146.66 15.8899 146.64 14.9699H155.46L155.76 12.1799ZM146.61 11.9099C146.63 10.7499 146.83 9.9299 147.21 9.4499C147.61 8.9499 148.28 8.6999 149.22 8.6999C150.16 8.6999 150.85 8.9399 151.23 9.4199C151.61 9.8799 151.8 10.7099 151.8 11.9099H146.61Z" fill="#94A3B8"/>
<path d="M1.72994 6.05016C2.57994 5.50016 3.56994 5.11016 4.63994 4.91016C2.91994 5.40016 1.27994 6.60016 0.0599365 8.36016C0.0599365 8.18016 0.0599365 7.78016 0.0899365 7.54016C0.579937 6.95016 1.12994 6.46016 1.71994 6.05016" fill="#94A3B8"/>
<path d="M23.5899 15.0698C22.7399 15.6198 21.7399 16.0098 20.6799 16.2098C22.3999 15.7198 24.0399 14.5198 25.2599 12.7598C25.2599 12.9398 25.2599 13.3398 25.2299 13.5798C24.7399 14.1698 24.1899 14.6598 23.5999 15.0698" fill="#94A3B8"/>
<path d="M23.6599 8.15C22.0599 5.61 19.8599 3.59 17.4099 2.25C19.7299 3.63 21.7999 5.65 23.2899 8.14C23.4199 8.14 23.5399 8.14 23.6599 8.14V8.15Z" fill="#94A3B8"/>
<path d="M10.97 0.13C10.36 0.04 9.74 0 9.12 0C9.65 0 10.17 0.05 10.69 0.13C15.3 0.96 19.91 3.7 22.6 8.22C22.69 8.2 22.78 8.19 22.86 8.18C20.16 3.68 15.57 0.96 10.97 0.13Z" fill="#94A3B8"/>
<path d="M22.27 5.39014C22.27 5.39014 23.54 6.84014 24.16 8.24014C24.46 8.33014 24.69 8.48014 24.79 8.71014C24.85 8.85014 25.1 9.37014 25.16 9.51014C25.46 10.1501 24.72 11.1601 23.43 12.0001C23.46 12.2601 23.26 12.5701 22.83 12.8401L22.62 13.3601L22.09 13.1801C21.61 13.3301 21.24 13.2801 21.06 13.0901C19.58 13.5301 18.34 13.4401 18.04 12.8001C17.98 12.6601 17.73 12.1401 17.67 12.0001C17.52 11.6801 17.63 11.2701 17.94 10.8401C17.44 10.0501 16.71 9.08014 15.76 8.23014C15.76 8.23014 17.07 10.0501 17.29 11.3801C17.29 11.3801 17.21 11.9301 17.89 13.1701C18.31 13.9201 21.22 14.4201 23.07 13.4001C23.07 13.4001 25.51 11.1501 25.46 9.97014C25.4 8.52014 24.59 8.00014 22.27 5.40014V5.39014Z" fill="#94A3B8"/>
<path d="M19.22 9.64002C18.89 9.22002 18.4 8.62002 17.9 8.07002C17.86 8.02002 13.48 3.29002 7.94997 3.14002C7.78997 3.14002 7.62997 3.14002 7.46997 3.14002C5.85997 3.18002 4.56997 3.45002 3.52997 3.83002C4.80997 3.24002 6.48997 2.84002 8.65997 3.01002C14.53 3.47002 18.83 7.65002 19.93 9.21002C20.13 9.10002 20.33 8.99002 20.55 8.90002C20.55 8.90002 20.57 8.90002 20.58 8.89002C20.34 8.56002 20.08 8.21002 19.8 7.88002C19.76 7.83002 15.34 2.42002 9.37997 1.89002C9.20997 1.88002 9.03997 1.86002 8.85997 1.86002C7.11997 1.79002 5.69997 2.00002 4.55997 2.34002C5.97997 1.78002 7.82997 1.47002 10.15 1.79002C15.76 2.58002 19.83 6.46002 21.43 8.55002C21.76 8.44002 22.09 8.35002 22.39 8.28002C19.69 3.91002 15.2 1.27002 10.69 0.460021C6.25997 -0.219979 1.20997 1.68002 0.0899658 7.31002C2.51997 3.78002 6.44997 3.97002 9.74997 4.62002C12.84 5.23002 16.17 7.37002 18.18 10.55C18.45 10.24 18.8 9.93002 19.23 9.64002H19.22Z" fill="#94A3B8"/>
<path d="M24.9399 9.61016L24.5699 8.81016C24.4999 8.66016 24.3399 8.55016 24.0899 8.48016C23.9599 8.44016 23.8099 8.42016 23.6499 8.41016C23.5699 8.41016 23.4899 8.41016 23.4199 8.41016C23.3799 8.41016 23.3399 8.41016 23.3099 8.41016C23.1899 8.41016 23.0499 8.43016 22.8999 8.45016C22.7999 8.46016 22.7299 8.47016 22.6499 8.49016C22.5999 8.49016 22.5399 8.51016 22.4699 8.52016C22.1699 8.58016 21.8599 8.67016 21.5399 8.78016C21.2499 8.88016 20.9699 8.99016 20.6999 9.12016H20.6699C20.4799 9.22016 20.2799 9.32016 20.0699 9.44016C19.8199 9.58016 19.5799 9.72016 19.3799 9.87016C18.9799 10.1502 18.6399 10.4402 18.3799 10.7402C18.2999 10.8302 18.2299 10.9202 18.1599 11.0102C17.8999 11.3802 17.8099 11.7102 17.9199 11.9202L18.2899 12.7202C18.4099 12.9902 18.8199 13.1402 19.4199 13.1402C19.8799 13.1402 20.4299 13.0502 21.0099 12.8802C21.0299 12.8802 21.0599 12.8702 21.0799 12.8702C21.1499 12.8702 21.2199 12.9002 21.2599 12.9502C21.3199 13.0102 21.4399 13.0502 21.5899 13.0502C21.7199 13.0502 21.8699 13.0202 22.0399 12.9702C22.0899 12.9502 22.1499 12.9602 22.1999 12.9702L22.4999 13.0702L22.6199 12.7702C22.6199 12.7702 22.6699 12.6802 22.7199 12.6502C23.0999 12.4002 23.2199 12.1702 23.2099 12.0402C23.1999 11.9502 23.2399 11.8502 23.3199 11.8002C24.4999 11.0302 25.1899 10.1102 24.9599 9.62016L24.9399 9.61016ZM21.4099 10.7302C20.7499 11.0302 20.1199 11.0602 19.9899 10.7902C19.9899 10.7702 19.9499 10.7002 19.9399 10.6902C19.8099 10.4202 20.2399 9.95016 20.8999 9.65016C21.5599 9.35016 22.1899 9.32016 22.3199 9.59016C22.3199 9.61016 22.3599 9.68016 22.3699 9.69016C22.4999 9.96016 22.0699 10.4302 21.4099 10.7302Z" fill="#94A3B8"/>
<path d="M0.729951 11.8202C0.669951 11.6902 0.429951 11.2002 0.369951 11.0702C0.229951 10.7702 0.319951 10.3802 0.599951 9.97023C0.659951 9.88023 0.729951 9.78023 0.809951 9.69023C1.05995 9.40023 1.38995 9.10023 1.77995 8.81023C1.98995 8.66023 2.20995 8.52023 2.44995 8.38023C2.62995 8.27023 2.82995 8.17023 3.02995 8.07023C3.02995 8.07023 3.04995 8.07023 3.05995 8.06023C3.32995 7.93023 3.59995 7.82023 3.86995 7.72023C4.17995 7.61023 4.48995 7.52023 4.77995 7.45023C4.83995 7.44023 4.89995 7.42023 4.95995 7.41023C5.03995 7.39023 5.11995 7.38023 5.20995 7.37023C5.34995 7.35023 5.48995 7.33023 5.61995 7.33023C5.73995 7.33023 5.85995 7.33023 5.96995 7.33023C6.13995 7.33023 6.29995 7.36023 6.43995 7.40023C6.72995 7.48023 6.93995 7.62023 7.03995 7.83023C7.09995 7.96023 7.33995 8.45023 7.39995 8.58023C7.55995 8.91023 7.42995 9.34023 7.07995 9.80023C7.56995 10.6502 8.38995 11.8502 9.54995 12.8802C9.54995 12.8802 8.11995 11.1702 7.89995 9.85023C7.89995 9.85023 7.71995 8.62023 7.28995 7.75023C6.95995 7.09023 5.65995 6.57023 3.00995 7.71023C3.00995 7.71023 -0.330049 9.33023 0.0299506 11.0402C0.279951 12.2202 0.90995 13.5602 3.10995 15.7302C3.10995 15.7302 1.50995 13.8202 0.939951 12.0502C0.849951 11.9802 0.779951 11.9002 0.729951 11.8002V11.8202Z" fill="#94A3B8"/>
<path d="M7.88994 18.86C5.36994 17.36 3.14994 15.1 1.63994 12.31C1.46994 12.29 1.31994 12.26 1.18994 12.21C2.80994 15.11 5.19994 17.4 7.88994 18.86Z" fill="#94A3B8"/>
<path d="M15.5599 16.4998C12.3099 15.8598 8.79995 13.5398 6.84995 10.0898C6.57995 10.3798 6.22995 10.6798 5.81995 10.9598C6.10995 11.3498 6.75995 12.3498 7.40995 13.0598C7.44995 13.1098 11.8299 17.8398 17.3599 17.9898C17.5199 17.9898 17.6799 17.9898 17.8399 17.9898C19.4499 17.9498 20.7399 17.6798 21.7799 17.2998C20.4999 17.8898 18.8199 18.2898 16.6499 18.1198C10.6699 17.6598 6.44995 13.2498 5.43995 11.6398C5.37995 11.6898 5.31995 11.7398 5.24995 11.7798L5.05995 12.2698L4.55995 12.1098C4.48995 12.1298 4.42995 12.1398 4.35995 12.1598C4.63995 12.4898 4.96995 12.8598 5.29995 13.2698C5.33995 13.3198 9.95995 18.7298 15.9199 19.2598C16.0899 19.2798 16.2599 19.2898 16.4399 19.2898C18.1799 19.3598 19.5999 19.1498 20.7399 18.8098C19.3199 19.3698 17.4699 19.6798 15.1499 19.3598C9.08995 18.5098 5.08995 14.2598 3.75995 12.1598C3.68995 12.1298 3.62995 12.0998 3.58995 12.0498C3.22995 12.1598 2.88995 12.2398 2.56995 12.2898C5.23995 16.9798 9.92995 19.8198 14.6299 20.6698C19.0599 21.3498 24.0999 19.4498 25.2299 13.8198C22.7999 17.3498 18.8699 17.1598 15.5699 16.5098L15.5599 16.4998Z" fill="#94A3B8"/>
<path d="M14.34 20.9901C14.95 21.0801 15.57 21.1301 16.19 21.1201C15.66 21.1201 15.14 21.0701 14.62 20.9901C9.80999 20.1301 5.00999 17.1801 2.37999 12.3101C2.28999 12.3201 2.18999 12.3301 2.10999 12.3301C4.74999 17.1901 9.53999 20.1301 14.34 20.9901Z" fill="#94A3B8"/>
<path d="M7.17999 8.69984L6.81999 7.94984C6.74999 7.80984 6.59999 7.70984 6.36999 7.64984C6.24999 7.61984 6.10999 7.58984 5.94999 7.58984C5.88999 7.58984 5.82999 7.58984 5.77999 7.58984C5.72999 7.58984 5.67999 7.58984 5.62999 7.58984C5.50999 7.58984 5.38999 7.60984 5.23999 7.62984C5.14999 7.63984 5.07999 7.64984 5.00999 7.66984C4.95999 7.66984 4.89999 7.68984 4.83999 7.70984C4.55999 7.76984 4.26999 7.85984 3.95999 7.96984C3.68999 8.06984 3.42999 8.17984 3.16999 8.29984H3.13999C2.95999 8.39984 2.76999 8.49984 2.57999 8.60984C2.33999 8.74984 2.12999 8.88984 1.92999 9.02984C1.55999 9.29984 1.23999 9.57984 0.999985 9.86984C0.919985 9.95984 0.859985 10.0498 0.799985 10.1298C0.559986 10.4798 0.489985 10.7898 0.579985 10.9898L0.939985 11.7398C0.969985 11.7998 1.00999 11.8498 1.07999 11.8998C1.12999 11.9398 1.19999 11.9798 1.27999 12.0098C1.38999 12.0498 1.51999 12.0798 1.66999 12.0998C1.75999 12.1098 1.85999 12.1198 1.96999 12.1198C2.00999 12.1198 2.05999 12.1198 2.09999 12.1198C2.18999 12.1198 2.26999 12.1198 2.35999 12.0998C2.40999 12.0998 2.46999 12.0898 2.52999 12.0798C2.83999 12.0398 3.16999 11.9598 3.51999 11.8498C3.53999 11.8498 3.56999 11.8398 3.58999 11.8398C3.65999 11.8398 3.71999 11.8698 3.76999 11.9198C3.78999 11.9398 3.81999 11.9598 3.85999 11.9698C3.90999 11.9898 3.96999 11.9998 4.04999 11.9998C4.12999 11.9998 4.21999 11.9898 4.31999 11.9698H4.36999C4.36999 11.9698 4.45999 11.9398 4.49999 11.9298C4.54999 11.9098 4.60999 11.9098 4.65999 11.9298L4.92999 12.0198L5.03999 11.7398C5.03999 11.7398 5.08999 11.6498 5.12999 11.6198C5.18999 11.5798 5.23999 11.5398 5.29999 11.4898C5.51999 11.2998 5.58999 11.1398 5.57999 11.0498C5.56999 10.9598 5.60999 10.8598 5.68999 10.8098H5.70999C6.09999 10.5298 6.42999 10.2498 6.69999 9.96984C6.77999 9.87984 6.85999 9.78984 6.91999 9.70984C7.21999 9.30984 7.31999 8.96984 7.20999 8.73984L7.17999 8.69984ZM3.86999 9.80984C3.24999 10.1098 2.64999 10.1398 2.52999 9.88984C2.52999 9.86984 2.48999 9.80984 2.47999 9.78984C2.35999 9.52984 2.75999 9.08984 3.36999 8.78984C3.98999 8.48984 4.58999 8.45984 4.70999 8.70984C4.70999 8.72984 4.74999 8.78984 4.75999 8.80984C4.87999 9.06984 4.47999 9.50984 3.86999 9.80984Z" fill="#94A3B8"/>
</g>
</g>
<defs>
<clipPath id="clip0_273_450">
<rect width="156" height="27" fill="white"/>
</clipPath>
<clipPath id="clip1_273_450">
<rect width="155.76" height="27.06" fill="white"/>
</clipPath>
</defs>
</svg>
