<svg width="162" height="76" viewBox="0 0 162 76" fill="none" xmlns="http://www.w3.org/2000/svg">
<path d="M34.1199 61.824C35.2186 61.824 36.0079 62.1333 36.4879 62.752C36.9786 63.36 37.2239 64.4427 37.2239 66C37.2239 67.5573 36.9359 68.6453 36.3599 69.264C35.7839 69.872 34.7706 70.176 33.3199 70.176C32.8186 70.176 32.0239 70.128 30.9359 70.032L30.3919 69.984V58.672H32.1199V62.304C32.8559 61.984 33.5226 61.824 34.1199 61.824ZM33.3199 68.624C34.1733 68.624 34.7386 68.4267 35.0159 68.032C35.3039 67.6267 35.4479 66.944 35.4479 65.984C35.4479 65.024 35.3253 64.352 35.0799 63.968C34.8453 63.5733 34.4559 63.376 33.9119 63.376C33.3999 63.376 32.8879 63.456 32.3759 63.616L32.1199 63.696V68.56C32.7066 68.6027 33.1066 68.624 33.3199 68.624ZM38.1091 62H39.8211L41.5171 68.512H41.9491L43.6451 62H45.3731L42.3331 73.44H40.6211L41.5811 70H40.2051L38.1091 62Z" fill="#94A3B8"/>
<path d="M66.0134 57.4675L61.8085 54.48H60.4717L65.2058 57.4675H66.0134Z" fill="#1088C9"/>
<path d="M64.1545 57.4675L59.3922 54.48H58.0554L63.3469 57.4675H64.1545Z" fill="#1088C9"/>
<path d="M90.8097 54.4943H86.089L81.4608 65.827L80.5737 66.7142H78.0836L82.9192 54.4943H78.8668L73.2552 66.7142H69.8712L75.3714 54.5257H75.3471L75.358 54.4939H62.8666L67.1 57.4801H69.1693L64.3551 68.354L59.4131 73.3769C59.4131 73.3769 71.2675 72.0451 82.5399 71.6981L85.9649 68.0506L90.8097 54.4939" fill="#FF7900"/>
<path d="M108.192 58.108C109.052 57.5523 110.055 57.163 111.132 56.9585C109.394 57.4559 107.736 58.6641 106.51 60.4401C106.513 60.2578 106.51 59.8551 106.541 59.6103C107.033 59.0148 107.591 58.5162 108.192 58.1076" fill="#FF7900"/>
<path d="M130.27 67.2236C129.409 67.7793 128.406 68.1686 127.328 68.3731C129.066 67.8757 130.725 66.6675 131.952 64.8911C131.947 65.0734 131.952 65.4757 131.92 65.7213C131.428 66.3168 130.87 66.8154 130.27 67.224" fill="#FF7900"/>
<path d="M108.306 65.3447L108.308 65.3286L108.304 65.3447H108.306Z" fill="#22205F"/>
<path d="M130.347 60.2333C128.734 57.6682 126.511 55.6257 124.039 54.2788C126.382 55.6693 128.47 57.7101 129.975 60.2266C130.106 60.222 130.229 60.2253 130.347 60.2333Z" fill="#FF7900"/>
<path d="M117.53 52.1312C116.915 52.0365 116.287 51.9933 115.659 52.0008C116.19 52.008 116.721 52.0511 117.242 52.1312C121.903 52.9676 126.552 55.736 129.273 60.3025C129.363 60.287 129.45 60.2748 129.536 60.2639C126.812 55.7213 122.177 52.9655 117.53 52.1312Z" fill="#FF7900"/>
<path d="M128.941 57.4426C128.941 57.4426 130.226 58.9059 130.85 60.3177C131.157 60.4087 131.382 60.5637 131.487 60.79C131.552 60.93 131.796 61.4572 131.861 61.5971C132.161 62.245 131.414 63.2587 130.112 64.1094C130.145 64.3705 129.938 64.6861 129.509 64.9626L129.3 65.484L128.766 65.3067C128.281 65.4534 127.904 65.4081 127.726 65.2149C126.235 65.6579 124.978 65.5732 124.678 64.9253C124.613 64.7854 124.369 64.2582 124.304 64.1182C124.155 63.7968 124.267 63.384 124.573 62.9465C124.067 62.1499 123.335 61.1731 122.368 60.3106C122.368 60.3106 123.695 62.1512 123.917 63.4884C123.917 63.4884 123.834 64.0453 124.522 65.2916C124.943 66.0514 127.886 66.5513 129.752 65.5213C129.752 65.5213 132.22 63.2533 132.167 62.0535C132.105 60.5914 131.29 60.0688 128.941 57.4421V57.4426Z" fill="#FF7900"/>
<path d="M125.864 61.7315C125.534 61.3083 125.039 60.6965 124.527 60.1412C124.484 60.0922 120.059 55.3107 114.48 55.1657H114.479C114.318 55.1619 114.159 55.1611 113.996 55.1648C112.372 55.2013 111.065 55.477 110.02 55.8596C111.31 55.2608 113.012 54.8585 115.197 55.0282C121.13 55.4896 125.469 59.7192 126.585 61.2852C126.784 61.1746 126.99 61.0677 127.206 60.9672C127.217 60.9626 127.227 60.9584 127.237 60.9538C126.996 60.6227 126.728 60.2682 126.453 59.9296C126.409 59.8743 121.948 54.4118 115.931 53.8817C115.758 53.8666 115.584 53.8557 115.409 53.8481C113.653 53.7781 112.221 53.9889 111.067 54.3317C112.501 53.771 114.367 53.4513 116.716 53.7807C122.383 54.576 126.49 58.5001 128.108 60.6055C128.444 60.4907 128.771 60.4006 129.081 60.3373C126.338 55.9514 121.799 53.282 117.242 52.464C112.769 51.7771 107.674 53.6922 106.537 59.3835C108.994 55.8215 112.962 56.0122 116.298 56.6642C119.421 57.2761 122.785 59.4397 124.808 62.6497C125.079 62.3413 125.436 62.0278 125.864 61.7303L125.864 61.7315Z" fill="#FF7900"/>
<path d="M131.634 61.7026L131.26 60.8955C131.191 60.7451 131.028 60.6315 130.779 60.5578C130.649 60.5196 130.498 60.4941 130.33 60.4827C130.249 60.4773 130.171 60.4744 130.093 60.4744C130.053 60.4744 130.017 60.4748 129.984 60.4765C129.86 60.4807 129.723 60.4924 129.568 60.5121C129.471 60.5242 129.391 60.536 129.316 60.549C129.262 60.5582 129.203 60.5695 129.131 60.5842C128.83 60.6453 128.513 60.7325 128.189 60.8436C127.899 60.9429 127.614 61.0564 127.341 61.1822L127.311 61.1952C127.115 61.2861 126.917 61.3875 126.706 61.5048C126.451 61.6465 126.216 61.7923 126.006 61.9373C125.601 62.2189 125.261 62.5148 124.996 62.8165C124.913 62.91 124.84 63.0022 124.778 63.0906C124.516 63.4644 124.428 63.7925 124.531 64.0138L124.905 64.8209C125.029 65.0887 125.444 65.242 126.046 65.242C126.513 65.242 127.069 65.1499 127.654 64.9759C127.677 64.9692 127.701 64.9655 127.725 64.9655C127.795 64.9655 127.862 64.9948 127.909 65.0459C127.967 65.1084 128.087 65.144 128.24 65.144C128.374 65.144 128.526 65.1184 128.693 65.0677C128.746 65.0518 128.804 65.0539 128.856 65.0736L129.155 65.1729L129.277 64.8695C129.296 64.8213 129.329 64.7811 129.373 64.753C129.76 64.5028 129.879 64.2673 129.863 64.1412C129.851 64.0469 129.895 63.9526 129.974 63.9006C131.165 63.1224 131.864 62.198 131.634 61.7026ZM128.071 62.8349C127.407 63.1425 126.765 63.1694 126.637 62.8945C126.629 62.8764 126.597 62.8077 126.589 62.7897C126.461 62.5148 126.896 62.0421 127.561 61.7345C128.225 61.4269 128.866 61.4001 128.994 61.675C129.003 61.693 129.034 61.7617 129.043 61.7797C129.17 62.0547 128.735 62.5269 128.071 62.8349Z" fill="#1088C9"/>
<path d="M107.183 63.9391C107.119 63.8075 106.88 63.3134 106.817 63.1818C106.671 62.8801 106.77 62.4887 107.053 62.0705C107.116 61.977 107.189 61.8823 107.27 61.7872C107.522 61.4913 107.854 61.1896 108.254 60.9017C108.462 60.7525 108.688 60.6075 108.928 60.4688C109.114 60.3611 109.308 60.2568 109.511 60.1587C109.521 60.1541 109.53 60.1503 109.54 60.1457C109.816 60.0137 110.089 59.9006 110.357 59.8038C110.673 59.6898 110.981 59.5997 111.273 59.5351C111.334 59.5217 111.395 59.5087 111.454 59.4974C111.538 59.4815 111.62 59.4685 111.702 59.4568C111.845 59.4362 111.984 59.4212 112.116 59.4145C112.239 59.4082 112.356 59.4094 112.468 59.4153C112.643 59.4245 112.803 59.4484 112.944 59.4874C113.236 59.5683 113.451 59.7116 113.554 59.924C113.617 60.0556 113.856 60.5497 113.92 60.6809C114.08 61.0111 113.946 61.4486 113.598 61.9117C114.095 62.7665 114.923 63.9781 116.092 65.0203C116.092 65.0203 114.644 63.2937 114.421 61.9565C114.421 61.9565 114.244 60.711 113.808 59.8398C113.474 59.1714 112.158 58.6484 109.484 59.7979C109.484 59.7979 106.112 61.4318 106.476 63.1605C106.727 64.3519 107.361 65.7021 109.588 67.9022C109.588 67.9022 107.977 65.9753 107.395 64.1888C107.304 64.1189 107.23 64.0367 107.183 63.9382V63.9391Z" fill="#FF7900"/>
<path d="M114.422 71.0527C111.874 69.5416 109.629 67.2598 108.107 64.4349C107.938 64.416 107.787 64.3821 107.656 64.3318C109.292 67.2589 111.707 69.5743 114.422 71.0523V71.0527Z" fill="#FF7900"/>
<path d="M122.162 68.6655C118.883 68.0235 115.339 65.6713 113.361 62.1931C113.089 62.4886 112.737 62.7878 112.323 63.0702C112.611 63.4629 113.272 64.4728 113.933 65.1898C113.977 65.2389 118.401 70.0204 123.981 70.1654C124.142 70.1691 124.302 70.17 124.464 70.1662C126.087 70.1302 127.395 69.854 128.44 69.4718C127.151 70.0711 125.448 70.473 123.263 70.3028C117.223 69.8343 112.962 65.3813 111.94 63.7533C111.882 63.8023 111.82 63.8513 111.749 63.8987L111.559 64.3949L111.052 64.2356C110.98 64.2583 110.916 64.2692 110.849 64.283C111.136 64.6115 111.469 64.9899 111.803 65.4002C111.846 65.4551 116.512 70.9193 122.529 71.4485H122.53C122.702 71.464 122.875 71.4754 123.051 71.4816C124.806 71.5516 126.239 71.3413 127.393 70.998C125.959 71.5588 124.093 71.8793 121.744 71.5491C115.628 70.6909 111.584 66.3988 110.244 64.2759C110.174 64.249 110.113 64.213 110.068 64.1652C109.705 64.2796 109.356 64.3597 109.034 64.4062C111.729 69.1395 116.463 72.0122 121.218 72.8662C125.691 73.5531 130.786 71.638 131.924 65.9471C129.466 69.5095 125.499 69.3189 122.163 68.666L122.162 68.6655Z" fill="#FF7900"/>
<path d="M120.93 73.2001C121.545 73.2948 122.173 73.338 122.8 73.3304C122.27 73.3233 121.74 73.2802 121.218 73.2001C116.358 72.3276 111.515 69.351 108.853 64.4287C108.758 64.4388 108.666 64.4451 108.577 64.4488C111.241 69.359 116.077 72.3289 120.93 73.2001H120.93Z" fill="#FF7900"/>
<path d="M113.698 60.7889L113.331 60.0317C113.264 59.8934 113.112 59.7907 112.878 59.7258C112.756 59.6914 112.613 59.67 112.455 59.6621C112.395 59.6587 112.338 59.6575 112.282 59.6575C112.23 59.6575 112.179 59.6587 112.129 59.6612C112.012 59.6671 111.883 59.6805 111.737 59.7011C111.648 59.7136 111.573 59.7262 111.5 59.74C111.448 59.7497 111.393 59.7614 111.326 59.7761C111.044 59.8381 110.746 59.9257 110.441 60.0355C110.168 60.1339 109.901 60.2458 109.646 60.3678L109.618 60.3804C109.434 60.4692 109.248 60.5681 109.051 60.6821C108.812 60.8204 108.592 60.9616 108.398 61.1016C108.02 61.3731 107.703 61.6577 107.458 61.9464C107.381 62.0365 107.314 62.1245 107.257 62.2079C107.018 62.562 106.94 62.8696 107.039 63.0737L107.405 63.8305C107.433 63.8892 107.479 63.942 107.544 63.9923C107.599 64.0342 107.666 64.0706 107.744 64.1004C107.853 64.1423 107.984 64.172 108.134 64.1884C108.228 64.1989 108.329 64.2039 108.432 64.2039C108.476 64.2039 108.521 64.203 108.567 64.201C108.657 64.1972 108.742 64.1909 108.827 64.1821C108.881 64.1762 108.937 64.1691 108.999 64.1603C109.314 64.115 109.649 64.0371 109.993 63.9286C110.017 63.921 110.042 63.9168 110.068 63.9168C110.135 63.9168 110.2 63.9449 110.247 63.9935C110.264 64.0115 110.294 64.0291 110.332 64.0438C110.382 64.0627 110.448 64.0723 110.524 64.0723C110.606 64.0723 110.698 64.0614 110.799 64.04L110.845 64.0308C110.893 64.0212 110.934 64.0128 110.977 63.999C111.03 63.9818 111.086 63.9835 111.138 64.0023L111.412 64.0886L111.519 63.8091C111.537 63.7614 111.57 63.7211 111.612 63.6922C111.668 63.6549 111.721 63.6138 111.78 63.564C112.007 63.3712 112.074 63.2065 112.061 63.1168C112.048 63.0238 112.09 62.9295 112.168 62.8767L112.184 62.865C112.579 62.5964 112.913 62.3135 113.18 62.0248C113.263 61.9347 113.337 61.8462 113.4 61.762C113.702 61.3614 113.807 61.0152 113.697 60.7873L113.698 60.7889ZM110.357 61.9099C109.734 62.2112 109.128 62.2464 109.003 61.9883C108.995 61.9715 108.964 61.907 108.956 61.8898C108.831 61.6321 109.235 61.1787 109.858 60.8774C110.481 60.5761 111.087 60.5409 111.212 60.799C111.22 60.8158 111.251 60.8803 111.259 60.8975C111.384 61.1552 110.98 61.6086 110.357 61.9099Z" fill="#1088C9"/>
<path d="M86.9033 71.595C87.0236 71.5929 88.0071 71.5774 88.0059 71.5858H89.6725C93.3715 71.5858 102.975 71.5962 102.974 71.5937C105.073 71.4521 106.274 69.3505 105.898 66.7334C105.33 62.7846 104.736 62.6606 101.941 62.182L101.828 62.1548C102.717 62.0948 103.425 61.273 103.874 60.5426C104.048 60.2334 104.191 59.8352 104.242 59.3244C104.391 57.8363 103.713 56.2724 103.563 55.9463C103.551 55.9254 103.209 55.2758 102.561 54.879C101.914 54.4821 99.1877 54.4989 99.1877 54.4989H97.0048L91.6404 54.4922L90.472 57.8066L98.4749 57.8045C99.3063 57.8045 99.7229 58.0421 99.9303 59.1341C100.067 59.8528 99.6189 60.4244 98.8579 60.463L89.5245 60.4609L86.7378 68.32L83.3794 71.7039C83.3794 71.7039 85.4726 71.6164 86.9037 71.5941L86.9033 71.595ZM100.711 67.1563L90.7989 67.1538L91.8591 64.1403L100.276 64.1378C101.22 64.1378 101.694 64.4081 101.929 65.6472C102.084 66.4631 101.576 67.1127 100.711 67.1563Z" fill="#FF7900"/>
<path d="M89.1549 73.9971H88.6097L88.5498 74.2753H89.095C89.2123 74.2753 89.2769 74.2112 89.2928 74.1354C89.3087 74.0616 89.2723 73.9975 89.1549 73.9975V73.9971Z" fill="#1088C9"/>
<path d="M95.2483 74.5972H94.6595L94.5879 74.9307H95.1767C95.2915 74.9307 95.3812 74.8687 95.4046 74.7606C95.4277 74.6525 95.3632 74.5976 95.2483 74.5976V74.5972Z" fill="#1088C9"/>
<path d="M101.341 74.011H100.927L100.734 74.9174H101.192C101.505 74.9174 101.638 74.6874 101.686 74.4619C101.751 74.156 101.633 74.011 101.342 74.011H101.341Z" fill="#1088C9"/>
<path d="M95.3307 73.9971H94.7855L94.7256 74.2753H95.2708C95.3881 74.2753 95.4527 74.2112 95.4686 74.1354C95.4845 74.0616 95.4481 73.9975 95.3307 73.9975V73.9971Z" fill="#1088C9"/>
<path d="M80.3925 73.9602C80.1004 73.9602 79.8708 74.1211 79.797 74.4639C79.7237 74.8088 79.8867 74.9676 80.1788 74.9676C80.4709 74.9676 80.703 74.8088 80.7768 74.4639C80.8501 74.1211 80.6871 73.9602 80.3925 73.9602Z" fill="#1088C9"/>
<path d="M82.8328 74.011H82.3061L82.2302 74.3697H82.757C82.8902 74.3697 82.9753 74.3006 82.9984 74.1878C83.0214 74.0797 82.9661 74.011 82.8328 74.011Z" fill="#1088C9"/>
<path d="M89.0726 74.5972H88.4838L88.4121 74.9307H89.0009C89.1157 74.9307 89.2054 74.8687 89.2289 74.7606C89.2519 74.6525 89.1874 74.5976 89.0726 74.5976V74.5972Z" fill="#1088C9"/>
<path d="M86.7701 74.011H86.356L86.1628 74.9174H86.6205C86.9335 74.9174 87.0668 74.6874 87.1154 74.4619C87.1795 74.156 87.0622 74.011 86.7705 74.011H86.7701Z" fill="#1088C9"/>
<path d="M99.105 74.0571L98.7441 74.6782H99.2039L99.1096 74.0571H99.105Z" fill="#1088C9"/>
<path d="M129.418 74.7988C118.84 73.5709 113.688 72.7542 94.0851 72.7542C74.4826 72.7542 69.3302 73.5709 58.7522 74.7988L58 76.0002H130.171L129.418 74.7988H129.418ZM77.8938 75.2849L77.8363 74.2154H77.8313L77.3184 75.2849H76.7778L76.6353 73.643H77.1642L77.1847 74.7514H77.1893L77.7228 73.643H78.1875L78.2474 74.7514H78.2521L78.7466 73.643H79.2754L78.4335 75.2849H77.8929H77.8938ZM81.3561 74.4639C81.2111 75.1449 80.6797 75.3356 80.1001 75.3356C79.5206 75.3356 79.0722 75.1445 79.2172 74.4639C79.3622 73.7829 79.891 73.5923 80.4706 73.5923C81.0501 73.5923 81.5011 73.7834 81.3561 74.4639ZM83.6027 74.1006C83.5566 74.3189 83.3613 74.5532 83.132 74.6202L83.391 75.2853H82.8408L82.6417 74.738H82.1519L82.0345 75.2853H81.4872L81.8367 73.6434H83.1522C83.5549 73.6434 83.6626 73.8274 83.6031 74.101L83.6027 74.1006ZM85.2567 75.2849H83.7087L84.0586 73.643H84.6059L84.3364 74.9031H85.3372L85.2567 75.2849ZM87.6806 74.4639C87.5427 75.1101 87.124 75.2849 86.6526 75.2849H85.5371L85.887 73.643H87.0738C87.5821 73.643 87.7958 73.9166 87.681 74.4639H87.6806ZM89.8773 74.0478C89.845 74.202 89.7323 74.3353 89.6057 74.3789L89.6036 74.3835C89.7696 74.4224 89.8521 74.5628 89.8014 74.795C89.7604 74.9907 89.6062 75.2849 89.1024 75.2849H87.7891L88.1386 73.643H89.498C89.8957 73.643 89.9121 73.889 89.8777 74.0478H89.8773ZM91.8846 73.9971H90.7875L90.7255 74.2938H91.7534L91.6797 74.6341H90.6517L90.5897 74.9308H91.6868L91.611 75.2849H89.9665L90.3165 73.643H91.9609L91.885 73.9971H91.8846ZM93.0647 75.2849H92.5174L92.6276 74.7673L92.1377 73.643H92.7726L92.9909 74.3399L93.5085 73.643H94.1433L93.1749 74.7673L93.0647 75.2849ZM96.0526 74.0478C96.0203 74.202 95.9076 74.3353 95.781 74.3789L95.779 74.3835C95.9449 74.4224 96.0275 74.5628 95.9767 74.795C95.9357 74.9907 95.781 75.2849 95.2778 75.2849H93.9644L94.3139 73.643H95.6733C96.071 73.643 96.0874 73.889 96.053 74.0478H96.0526ZM97.6442 75.2849H96.0962L96.4457 73.643H96.9934L96.7239 74.9031H97.7247L97.6442 75.2849ZM99.3024 75.2849L99.2609 75.0183H98.5435L98.3872 75.2849H97.8005L98.8628 73.643H99.5321L99.8883 75.2849H99.3016H99.3024ZM102.251 74.4639C102.113 75.1101 101.694 75.2849 101.223 75.2849H100.107L100.457 73.643H101.644C102.152 73.643 102.366 73.9166 102.251 74.4639H102.251ZM104.259 73.9971H103.162L103.1 74.2938H104.128L104.054 74.6341H103.026L102.964 74.9308H104.061L103.985 75.2849H102.341L102.691 73.643H104.335L104.259 73.9971H104.259ZM104.868 75.2849H104.353L104.45 74.8298H104.965L104.868 75.2849ZM107.346 74.4639C107.201 75.1449 106.67 75.3356 106.09 75.3356C105.511 75.3356 105.062 75.1445 105.207 74.4639C105.352 73.7829 105.881 73.5923 106.461 73.5923C107.04 73.5923 107.491 73.7834 107.346 74.4639ZM109.612 74.1006C109.566 74.3189 109.371 74.5532 109.142 74.6202L109.401 75.2853H108.85L108.651 74.738H108.161L108.044 75.2853H107.497L107.846 73.6434H109.162C109.564 73.6434 109.672 73.8274 109.613 74.101L109.612 74.1006ZM111.91 74.1836H111.291C111.285 74.057 111.208 73.9468 110.951 73.9468C110.615 73.9468 110.413 74.1764 110.353 74.4664C110.291 74.7518 110.395 74.9819 110.73 74.9819C111 74.9819 111.16 74.8809 111.255 74.6944H110.919L110.991 74.3541H111.874L111.676 75.2857H111.42L111.391 75.1156C111.301 75.196 111.06 75.336 110.634 75.336C109.916 75.336 109.668 75.0301 109.788 74.4643C109.891 73.9812 110.292 73.5927 111.002 73.5927C111.455 73.5927 111.943 73.71 111.91 74.184L111.91 74.1836Z" fill="#1088C9"/>
<path d="M108.842 74.011H108.315L108.24 74.3697H108.766C108.9 74.3697 108.985 74.3006 109.008 74.1878C109.031 74.0797 108.975 74.011 108.842 74.011Z" fill="#1088C9"/>
<path d="M106.383 73.9602C106.09 73.9602 105.861 74.1211 105.787 74.4639C105.714 74.8088 105.877 74.9676 106.169 74.9676C106.461 74.9676 106.693 74.8088 106.767 74.4639C106.84 74.1211 106.677 73.9602 106.383 73.9602Z" fill="#1088C9"/>
<path d="M43.482 8.6H51.492C53.612 8.6 55.202 9.03 56.262 9.89C57.322 10.73 57.852 12.1 57.852 14C57.852 15.14 57.682 16.05 57.342 16.73C57.002 17.39 56.422 17.98 55.602 18.5C56.502 18.88 57.162 19.43 57.582 20.15C58.022 20.87 58.242 21.87 58.242 23.15C58.242 25.13 57.662 26.6 56.502 27.56C55.342 28.52 53.712 29 51.612 29H43.482V8.6ZM51.402 20.48H47.622V25.46H51.402C52.302 25.46 52.962 25.28 53.382 24.92C53.822 24.56 54.042 23.9 54.042 22.94C54.042 21.3 53.162 20.48 51.402 20.48ZM51.282 12.14H47.622V17H51.312C52.872 17 53.652 16.19 53.652 14.57C53.652 12.95 52.862 12.14 51.282 12.14ZM64.7032 23.21C64.7232 24.13 64.9632 24.8 65.4232 25.22C65.9032 25.62 66.5832 25.82 67.4632 25.82C69.3232 25.82 70.9832 25.76 72.4432 25.64L73.2832 25.55L73.3432 28.52C71.0432 29.08 68.9632 29.36 67.1032 29.36C64.8432 29.36 63.2032 28.76 62.1832 27.56C61.1632 26.36 60.6532 24.41 60.6532 21.71C60.6532 16.33 62.8632 13.64 67.2832 13.64C71.6432 13.64 73.8232 15.9 73.8232 20.42L73.5232 23.21H64.7032ZM69.8632 20.15C69.8632 18.95 69.6732 18.12 69.2932 17.66C68.9132 17.18 68.2432 16.94 67.2832 16.94C66.3432 16.94 65.6732 17.19 65.2732 17.69C64.8932 18.17 64.6932 18.99 64.6732 20.15H69.8632ZM75.0818 14H79.0418L81.7718 25.58H82.4618L85.1918 14H89.1518L83.8718 35.3H79.9418L81.5918 29H78.7718L75.0818 14ZM98.0918 11.84C95.9118 11.84 94.8218 12.56 94.8218 14C94.8218 14.64 95.0918 15.13 95.6318 15.47C96.1718 15.81 97.4318 16.3 99.4118 16.94C101.412 17.58 102.812 18.31 103.612 19.13C104.412 19.93 104.812 21.17 104.812 22.85C104.812 24.99 104.162 26.61 102.862 27.71C101.562 28.81 99.8618 29.36 97.7618 29.36C96.2018 29.36 94.2918 29.12 92.0318 28.64L90.9518 28.43L91.3718 25.22C94.0518 25.58 96.1018 25.76 97.5218 25.76C99.6418 25.76 100.702 24.88 100.702 23.12C100.702 22.48 100.452 21.98 99.9518 21.62C99.4718 21.26 98.5018 20.87 97.0418 20.45C94.7218 19.79 93.0818 19.01 92.1218 18.11C91.1818 17.19 90.7118 15.92 90.7118 14.3C90.7118 12.26 91.3318 10.74 92.5718 9.74C93.8118 8.74 95.5118 8.24 97.6718 8.24C99.1518 8.24 101.032 8.44 103.312 8.84L104.392 9.05L104.062 12.32C101.242 12 99.2518 11.84 98.0918 11.84ZM113.39 13.64C114.43 13.64 115.76 13.8 117.38 14.12L118.19 14.3L118.07 17.48C116.49 17.32 115.32 17.24 114.56 17.24C113.18 17.24 112.26 17.54 111.8 18.14C111.36 18.72 111.14 19.83 111.14 21.47C111.14 23.11 111.36 24.24 111.8 24.86C112.26 25.46 113.19 25.76 114.59 25.76L118.07 25.52L118.19 28.73C116.05 29.15 114.42 29.36 113.3 29.36C111.08 29.36 109.48 28.74 108.5 27.5C107.54 26.24 107.06 24.23 107.06 21.47C107.06 18.71 107.56 16.72 108.56 15.5C109.56 14.26 111.17 13.64 113.39 13.64ZM121.862 15.71C122.922 14.33 124.692 13.64 127.172 13.64C129.652 13.64 131.422 14.33 132.482 15.71C133.542 17.07 134.072 18.99 134.072 21.47C134.072 26.73 131.772 29.36 127.172 29.36C122.572 29.36 120.272 26.73 120.272 21.47C120.272 18.99 120.802 17.07 121.862 15.71ZM124.952 24.86C125.372 25.58 126.112 25.94 127.172 25.94C128.232 25.94 128.962 25.58 129.362 24.86C129.782 24.14 129.992 23.01 129.992 21.47C129.992 19.93 129.782 18.81 129.362 18.11C128.962 17.41 128.232 17.06 127.172 17.06C126.112 17.06 125.372 17.41 124.952 18.11C124.552 18.81 124.352 19.93 124.352 21.47C124.352 23.01 124.552 24.14 124.952 24.86ZM137.018 29V14H141.008V15.59C142.688 14.59 144.288 13.94 145.808 13.64V17.69C144.188 18.03 142.798 18.38 141.638 18.74L141.038 18.95V29H137.018ZM151.481 23.21C151.501 24.13 151.741 24.8 152.201 25.22C152.681 25.62 153.361 25.82 154.241 25.82C156.101 25.82 157.761 25.76 159.221 25.64L160.061 25.55L160.121 28.52C157.821 29.08 155.741 29.36 153.881 29.36C151.621 29.36 149.981 28.76 148.961 27.56C147.941 26.36 147.431 24.41 147.431 21.71C147.431 16.33 149.641 13.64 154.061 13.64C158.421 13.64 160.601 15.9 160.601 20.42L160.301 23.21H151.481ZM156.641 20.15C156.641 18.95 156.451 18.12 156.071 17.66C155.691 17.18 155.021 16.94 154.061 16.94C153.121 16.94 152.451 17.19 152.051 17.69C151.671 18.17 151.471 18.99 151.451 20.15H156.641Z" fill="#475569"/>
<path d="M1.96119 12.8719C2.9287 12.2467 4.05746 11.8087 5.2692 11.5786C3.31344 12.1383 1.4482 13.4976 0.0686035 15.4958C0.072847 15.2907 0.0686035 14.8376 0.103966 14.5622C0.657502 13.8922 1.28554 13.3312 1.96119 12.8715" fill="#475569"/>
<path d="M26.8014 23.1285C25.8334 23.7537 24.7046 24.1917 23.4919 24.4218C25.4477 23.8621 27.3139 22.5028 28.694 20.5042C28.6888 20.7093 28.694 21.1619 28.6581 21.4382C28.1051 22.1082 27.4766 22.6693 26.8014 23.129" fill="#475569"/>
<path d="M2.08928 21.0142L2.09206 20.9961L2.08789 21.0142H2.08928Z" fill="#475569"/>
<path d="M26.8889 15.2635C25.0732 12.3774 22.5729 10.0794 19.7915 8.56396C22.4276 10.1284 24.7766 12.4246 26.4702 15.2559C26.6174 15.2507 26.756 15.2545 26.8889 15.2635Z" fill="#475569"/>
<path d="M12.468 6.14758C11.7754 6.04102 11.0691 5.99246 10.3633 6.00095C10.9602 6.00896 11.5576 6.05753 12.1441 6.14758C17.3876 7.08869 22.6189 10.2034 25.6803 15.3413C25.7812 15.3238 25.8793 15.3102 25.9759 15.2979C22.9112 10.1869 17.696 7.08633 12.468 6.14758Z" fill="#475569"/>
<path d="M25.3068 12.1235C25.3068 12.1235 26.7524 13.77 27.4544 15.3585C27.8 15.4608 28.0532 15.6352 28.1711 15.8898C28.2442 16.0473 28.5191 16.6405 28.5922 16.7979C28.9298 17.5269 28.0886 18.6674 26.6241 19.6245C26.6614 19.9183 26.4285 20.2733 25.9461 20.5845L25.7104 21.1711L25.1102 20.9716C24.5637 21.1366 24.1403 21.0857 23.9394 20.8684C22.2623 21.3667 20.8483 21.2715 20.5107 20.5426C20.4376 20.3851 20.1628 19.7919 20.0897 19.6345C19.9218 19.2728 20.0477 18.8084 20.3924 18.3161C19.8223 17.4198 18.9996 16.3208 17.9109 15.3504C17.9109 15.3504 19.4041 17.4212 19.6545 18.9258C19.6545 18.9258 19.5607 19.5524 20.3353 20.9546C20.8082 21.8095 24.1195 22.372 26.2196 21.213C26.2196 21.213 28.9958 18.6613 28.9368 17.3114C28.867 15.6663 27.95 15.0784 25.3068 12.123V12.1235Z" fill="#475569"/>
<path d="M21.8447 16.949C21.4727 16.4728 20.9159 15.7845 20.3402 15.1597C20.2916 15.1046 15.3126 9.72478 9.03608 9.56165H9.03514C8.85362 9.5574 8.67445 9.55646 8.49151 9.5607C6.66493 9.60172 5.19339 9.91197 4.01795 10.3424C5.46922 9.66868 7.38443 9.21604 9.84281 9.407C16.5178 9.92611 21.3997 14.6849 22.6553 16.4469C22.8792 16.3224 23.1117 16.2022 23.355 16.089C23.3663 16.0839 23.3776 16.0791 23.3894 16.0739C23.1183 15.7015 22.8165 15.3026 22.5072 14.9216C22.4582 14.8594 17.4381 8.71342 10.6684 8.11698C10.4737 8.10001 10.2785 8.08775 10.0814 8.07926C8.10582 8.00052 6.49472 8.23769 5.19622 8.62337C6.80921 7.99251 8.90878 7.63276 11.552 8.00335C17.928 8.89825 22.5487 13.3133 24.3696 15.6821C24.7478 15.5529 25.115 15.4516 25.4644 15.3804C22.378 10.4457 17.2708 7.44227 12.1437 6.52191C7.11144 5.74913 1.37899 7.90387 0.098877 14.3073C2.8642 10.2995 7.32832 10.5141 11.0814 11.2477C14.595 11.9361 18.3802 14.3704 20.6561 17.9821C20.9612 17.6351 21.3624 17.2824 21.8443 16.9476L21.8447 16.949Z" fill="#475569"/>
<path d="M28.3365 16.9166L27.9159 16.0085C27.8376 15.8393 27.6552 15.7115 27.3746 15.6285C27.228 15.5856 27.0583 15.5568 26.8697 15.5441C26.7782 15.538 26.691 15.5347 26.6028 15.5347C26.5575 15.5347 26.5175 15.5351 26.4797 15.537C26.3402 15.5417 26.1869 15.5549 26.0115 15.5771C25.9031 15.5908 25.813 15.604 25.7286 15.6186C25.6678 15.629 25.6013 15.6417 25.5202 15.6582C25.1822 15.727 24.8253 15.8251 24.4603 15.9501C24.1345 16.0618 23.8134 16.1896 23.5065 16.331L23.473 16.3456C23.2523 16.448 23.0293 16.5621 22.7922 16.6941C22.5055 16.8534 22.2405 17.0175 22.0048 17.1807C21.5484 17.4975 21.166 17.8304 20.8675 18.1699C20.7751 18.275 20.6926 18.3787 20.6228 18.4782C20.3281 18.8988 20.2291 19.268 20.3446 19.5169L20.7652 20.425C20.9048 20.7263 21.3725 20.8989 22.0491 20.8989C22.5743 20.8989 23.2 20.7952 23.8587 20.5995C23.8846 20.5919 23.912 20.5877 23.9388 20.5877C24.0171 20.5877 24.0926 20.6207 24.1458 20.6782C24.2104 20.7485 24.3457 20.7886 24.5178 20.7886C24.6682 20.7886 24.8399 20.7598 25.028 20.7027C25.0869 20.6848 25.1525 20.6872 25.2109 20.7093L25.5471 20.8211L25.6843 20.4797C25.706 20.4255 25.7437 20.3802 25.7928 20.3486C26.2284 20.0672 26.3623 19.8022 26.3444 19.6603C26.3307 19.5542 26.3798 19.4481 26.4694 19.3896C27.8094 18.5141 28.5949 17.4739 28.3365 16.9166ZM24.3278 18.1906C23.5805 18.5367 22.8586 18.5669 22.7148 18.2576C22.7054 18.2373 22.6696 18.16 22.6602 18.1397C22.5168 17.8304 23.0062 17.2985 23.7535 16.9525C24.5009 16.6064 25.2227 16.5762 25.3665 16.8855C25.376 16.9058 25.4118 16.9831 25.4212 17.0034C25.5646 17.3127 25.0752 17.8441 24.3278 18.1906Z" fill="#475569"/>
<path d="M0.825893 19.4327C0.754226 19.2847 0.485473 18.7288 0.413806 18.5807C0.249725 18.2413 0.360999 17.8009 0.67973 17.3303C0.750926 17.2252 0.832498 17.1186 0.923968 17.0116C1.20687 16.6787 1.58076 16.3393 2.03104 16.0153C2.26443 15.8475 2.51951 15.6843 2.78968 15.5283C2.99902 15.4071 3.21685 15.2897 3.44553 15.1794C3.45637 15.1742 3.46674 15.1699 3.47759 15.1648C3.78783 15.0162 4.09572 14.8889 4.39748 14.78C4.75251 14.6518 5.0986 14.5504 5.4277 14.4778C5.49654 14.4627 5.56443 14.4481 5.63138 14.4354C5.72615 14.4174 5.81857 14.4028 5.91004 14.3896C6.07129 14.3665 6.22736 14.3495 6.37588 14.342C6.51497 14.3349 6.64604 14.3363 6.77193 14.3429C6.96949 14.3533 7.14913 14.3802 7.30802 14.424C7.63665 14.515 7.87806 14.6763 7.99358 14.9153C8.06525 15.0634 8.334 15.6193 8.40567 15.7669C8.58531 16.1384 8.43537 16.6306 8.04309 17.1516C8.60323 18.1135 9.53443 19.4766 10.8499 20.6492C10.8499 20.6492 9.22042 18.7066 8.96958 17.2021C8.96958 17.2021 8.77061 15.8008 8.27978 14.8206C7.90353 14.0685 6.42303 13.4801 3.41488 14.7734C3.41488 14.7734 -0.378779 16.6118 0.0309511 18.5567C0.312906 19.8972 1.02628 21.4163 3.53228 23.8917C3.53228 23.8917 1.71891 21.7237 1.06447 19.7138C0.961687 19.635 0.879172 19.5426 0.825893 19.4318V19.4327Z" fill="#475569"/>
<path d="M8.97021 27.4366C6.10399 25.7364 3.57819 23.1691 1.86524 19.9907C1.6757 19.9695 1.50549 19.9313 1.35791 19.8748C3.1991 23.1682 5.91633 25.7732 8.97021 27.4361V27.4366Z" fill="#475569"/>
<path d="M17.6797 24.7508C13.9907 24.0284 10.0033 21.3819 7.77736 17.4685C7.47089 17.8009 7.07577 18.1376 6.60946 18.4553C6.93385 18.8971 7.6774 20.0334 8.42095 20.8402C8.46999 20.8953 13.4485 26.2751 19.726 26.4382C19.9075 26.4425 20.0872 26.4434 20.2696 26.4392C22.0962 26.3986 23.5678 26.0879 24.7427 25.6579C23.2924 26.3322 21.3767 26.7843 18.9188 26.5929C12.1222 26.0658 7.32897 21.0556 6.17852 19.2239C6.11345 19.2791 6.04367 19.3342 5.96352 19.3875L5.74946 19.9457L5.17942 19.7666C5.09879 19.792 5.02665 19.8043 4.95168 19.8199C5.27419 20.1895 5.64855 20.6153 6.02434 21.0769C6.07337 21.1386 11.3225 27.2865 18.0923 27.882H18.0932C18.287 27.8994 18.4822 27.9121 18.6793 27.9192C20.6549 27.998 22.2669 27.7613 23.5654 27.3751C21.9519 28.006 19.8524 28.3667 17.2096 27.9951C10.3286 27.0295 5.77775 22.2004 4.27037 19.8118C4.19116 19.7817 4.12327 19.7411 4.07187 19.6874C3.66356 19.8161 3.27174 19.9061 2.90869 19.9585C5.94135 25.284 11.2674 28.5161 16.6174 29.477C21.6497 30.2498 27.3831 28.0951 28.6628 21.6922C25.8979 25.7004 21.4338 25.4858 17.6802 24.7512L17.6797 24.7508Z" fill="#475569"/>
<path d="M16.2931 29.8525C16.9857 29.9591 17.692 30.0076 18.3974 29.9992C17.8004 29.9911 17.204 29.9426 16.617 29.8525C11.1495 28.8709 5.70043 25.5218 2.70549 19.9836C2.59846 19.995 2.4952 20.002 2.39478 20.0063C5.39161 25.5308 10.8331 28.8723 16.2935 29.8525H16.2931Z" fill="#475569"/>
<path d="M8.15559 15.8885L7.7435 15.0365C7.66806 14.8809 7.49691 14.7654 7.23381 14.6923C7.09566 14.6537 6.93536 14.6296 6.7576 14.6207C6.68971 14.6169 6.62558 14.6155 6.56287 14.6155C6.50488 14.6155 6.44689 14.6169 6.39031 14.6197C6.25876 14.6263 6.11448 14.6414 5.94946 14.6645C5.8495 14.6787 5.7651 14.6928 5.68306 14.7084C5.6246 14.7192 5.56236 14.7324 5.48692 14.7489C5.16961 14.8187 4.83484 14.9172 4.49112 15.0408C4.18465 15.1516 3.88383 15.2775 3.59669 15.4147L3.56558 15.4288C3.35859 15.5288 3.14972 15.64 2.92811 15.7683C2.65889 15.9239 2.41135 16.0828 2.19257 16.2403C1.76728 16.5458 1.41131 16.8659 1.13501 17.1908C1.04873 17.2922 0.972815 17.3912 0.909163 17.485C0.639939 17.8834 0.552242 18.2295 0.663515 18.4591L1.0756 19.3106C1.10766 19.3766 1.15906 19.4361 1.23261 19.4926C1.29437 19.5398 1.36981 19.5808 1.45704 19.6143C1.5801 19.6614 1.72768 19.6949 1.89554 19.7133C2.00209 19.7251 2.11525 19.7307 2.23171 19.7307C2.28075 19.7307 2.33167 19.7298 2.38306 19.7274C2.48396 19.7232 2.57967 19.7161 2.67586 19.7062C2.73668 19.6996 2.79939 19.6916 2.8687 19.6817C3.22374 19.6308 3.60047 19.5431 3.98804 19.421C4.01491 19.4125 4.0432 19.4078 4.07149 19.4078C4.14693 19.4078 4.22048 19.4394 4.27282 19.494C4.29215 19.5143 4.32562 19.5341 4.36947 19.5506C4.42464 19.5718 4.4996 19.5827 4.58542 19.5827C4.67736 19.5827 4.78109 19.5704 4.89425 19.5464L4.94611 19.536C4.99986 19.5252 5.04654 19.5157 5.09511 19.5002C5.15452 19.4808 5.21769 19.4827 5.27522 19.5039L5.58405 19.6011L5.70428 19.2866C5.72503 19.2328 5.76133 19.1876 5.80895 19.155C5.87213 19.1131 5.93201 19.0669 5.9985 19.0108C6.25357 18.7939 6.32901 18.6086 6.3144 18.5077C6.29931 18.403 6.34646 18.2969 6.43416 18.2375L6.45302 18.2243C6.8967 17.9221 7.27342 17.6038 7.57282 17.279C7.66618 17.1776 7.74963 17.0781 7.82083 16.9833C8.16031 16.5326 8.27912 16.1431 8.15512 15.8866L8.15559 15.8885ZM4.39729 17.1498C3.69618 17.4888 3.0144 17.5284 2.87389 17.2379C2.86493 17.2191 2.82957 17.1465 2.82061 17.1271C2.6801 16.8372 3.13463 16.327 3.83574 15.988C4.53686 15.649 5.21864 15.6094 5.35914 15.8998C5.3681 15.9187 5.40346 15.9913 5.41242 16.0106C5.55293 16.3006 5.09841 16.8108 4.39729 17.1498Z" fill="#475569"/>
</svg>
