<svg width="240" height="349" viewBox="0 0 240 349" fill="none" xmlns="http://www.w3.org/2000/svg">
<path d="M237.154 349H0V259.938L45.049 216.442C54.7146 207.467 64.0351 198.492 73.0104 189.516C73.0104 189.516 80.2596 182.267 94.7582 167.769C100.627 161.9 105.977 155.341 110.81 148.092C115.643 140.843 118.405 135.492 119.095 132.04C120.131 128.243 120.648 124.446 120.648 120.648C120.648 111.673 118.059 105.977 112.881 103.561C107.703 101.144 98.5554 99.9362 85.4377 99.9362C60.5831 99.9362 37.7997 101.835 17.0875 105.632L6.21365 107.703L1.03561 19.1588C36.9367 6.38625 74.3912 0 113.399 0C152.752 0 183.475 8.97527 205.568 26.9258C228.006 44.5312 239.226 69.2132 239.226 100.972C239.226 132.385 234.047 157.067 223.691 175.018C213.335 192.968 194.004 211.782 165.697 231.458L131.004 255.795H237.154V349Z" fill="url(#paint0_linear_81_390)" fill-opacity="0.1"/>
<defs>
<linearGradient id="paint0_linear_81_390" x1="119.613" y1="0" x2="119.613" y2="349" gradientUnits="userSpaceOnUse">
<stop stop-color="#FF5555"/>
<stop offset="1" stop-color="#FF5555" stop-opacity="0"/>
</linearGradient>
</defs>
</svg>
